<?xml version="1.0" encoding="utf-8"?>
<!-- Svg Vector Icons : http://www.onlinewebfonts.com/icon -->
<!DOCTYPE svg PUBLIC "-//W3C//DTD SVG 1.1//EN" "http://www.w3.org/Graphics/SVG/1.1/DTD/svg11.dtd">
<svg version="1.1" xmlns="http://www.w3.org/2000/svg" xmlns:xlink="http://www.w3.org/1999/xlink" x="0px" y="0px" viewBox="0 0 1000 1000" enable-background="new 0 0 1000 1000" xml:space="preserve">
<metadata> Svg Vector Icons : http://www.onlinewebfonts.com/icon </metadata>
<g><path d="M500,10C229.3,10,10,229.3,10,500s219.3,490,490,490s490-219.3,490-490S770.7,10,500,10z M500,949.2C252.4,949.2,50.8,747.8,50.8,500C50.8,252.4,252.2,50.8,500,50.8c247.6,0,449.2,201.4,449.2,449.2C949.2,747.6,747.6,949.2,500,949.2z"/><path d="M500,123.1c-208.3,0-376.9,168.7-376.9,376.9S291.8,876.9,500,876.9S876.9,708.3,876.9,500S708.3,123.1,500,123.1z"/></g>
</svg>