<svg width="636.2" height="72.801" viewBox="0 0 636.2 72.801">
    <g fill="none" fill-rule="evenodd" stroke="currentColor" stroke-width="1.3" class="lines">
        <path d="M 30.2 2 L 59.4 72 L 58.5 72 A 0.608 0.608 0 0 1 58.223 71.94 Q 58.082 71.869 57.991 71.715 A 0.966 0.966 0 0 1 57.9 71.5 L 48.15 48.1 L 11.25 48.1 L 1.5 71.5 Q 1.377 71.91 0.985 71.984 A 1.001 1.001 0 0 1 0.8 72 L 0 72 L 29.2 2 L 30.2 2 Z M 28.9 5.7 L 11.65 47.1 L 47.75 47.1 L 30.5 5.7 A 17.282 17.282 0 0 1 30.269 5.169 A 13.258 13.258 0 0 1 30.075 4.675 A 232.797 232.797 0 0 1 29.894 4.181 A 289.325 289.325 0 0 1 29.7 3.65 A 289.458 289.458 0 0 1 29.506 4.181 A 232.871 232.871 0 0 1 29.325 4.675 A 13.258 13.258 0 0 1 29.131 5.169 A 17.282 17.282 0 0 1 28.9 5.7 Z" id="0" vector-effect="non-scaling-stroke"/><path d="M 70.4 72 L 69.2 72 L 69.2 23 L 69.5 23 Q 70.2 23 70.2 23.8 L 70.35 33.25 Q 72.05 30.75 74.175 28.7 Q 76.3 26.65 78.75 25.2 Q 81.2 23.75 83.9 22.975 Q 86.6 22.2 89.5 22.2 Q 97.65 22.2 101.675 27.05 A 16.176 16.176 0 0 1 104.678 32.81 Q 105.7 36.216 105.7 40.6 L 105.7 72 L 104.5 72 L 104.5 40.6 A 32.015 32.015 0 0 0 104.289 36.833 A 23.551 23.551 0 0 0 103.6 33.275 A 16.031 16.031 0 0 0 102.324 30.039 A 13.107 13.107 0 0 0 100.825 27.8 Q 98.95 25.55 96.125 24.375 A 14.751 14.751 0 0 0 92.848 23.458 Q 91.379 23.216 89.722 23.201 A 24.306 24.306 0 0 0 89.5 23.2 Q 83.75 23.2 78.9 26.275 Q 74.05 29.35 70.4 34.75 L 70.4 72 Z" id="1" vector-effect="non-scaling-stroke"/><path d="M 123.7 23 L 124.9 23 L 124.9 72 L 123.7 72 L 123.7 23 Z M 126.544 6.331 A 2.392 2.392 0 0 0 127.1 4.8 A 2.601 2.601 0 0 0 126.864 3.693 A 2.827 2.827 0 0 0 126.225 2.825 Q 125.35 2 124.3 2 A 2.804 2.804 0 0 0 123.435 2.131 A 2.755 2.755 0 0 0 122.325 2.825 Q 121.5 3.65 121.5 4.8 A 2.439 2.439 0 0 0 121.776 5.939 A 2.993 2.993 0 0 0 122.325 6.675 Q 123.15 7.5 124.3 7.5 A 2.543 2.543 0 0 0 125.485 7.209 A 3.283 3.283 0 0 0 126.225 6.675 A 3.368 3.368 0 0 0 126.544 6.331 Z" id="2" vector-effect="non-scaling-stroke"/><path d="M 145.4 72 L 144.2 72 L 144.2 23 L 144.5 23 Q 145.2 23 145.2 23.8 L 145.35 37.4 A 35.385 35.385 0 0 1 146.648 33.655 A 27.628 27.628 0 0 1 147.95 30.925 A 20.114 20.114 0 0 1 150.073 27.771 A 16.937 16.937 0 0 1 151.6 26.15 Q 153.7 24.2 156.375 23.2 A 15.622 15.622 0 0 1 159.958 22.344 A 20.087 20.087 0 0 1 162.4 22.2 A 20.252 20.252 0 0 1 165.195 22.386 A 16.717 16.717 0 0 1 166.85 22.7 Q 168.9 23.2 170.8 24.1 L 170.6 24.5 A 8.082 8.082 0 0 0 170.506 24.644 A 5.881 5.881 0 0 0 170.425 24.775 Q 170.35 24.9 170.1 24.9 A 0.796 0.796 0 0 1 169.955 24.884 Q 169.718 24.84 169.314 24.667 A 7.632 7.632 0 0 1 169.275 24.65 Q 168.889 24.482 168.344 24.291 A 26.082 26.082 0 0 0 167.775 24.1 Q 167.067 23.87 166.124 23.67 A 26.637 26.637 0 0 0 165.525 23.55 A 13.325 13.325 0 0 0 164.275 23.379 Q 163.628 23.32 162.897 23.305 A 24.507 24.507 0 0 0 162.4 23.3 A 16.237 16.237 0 0 0 157.491 24.01 A 13.137 13.137 0 0 0 151.8 27.6 A 22.664 22.664 0 0 0 148.582 32.052 Q 147.332 34.272 146.325 37.006 A 46.292 46.292 0 0 0 145.4 39.8 L 145.4 72 Z" id="3" vector-effect="non-scaling-stroke"/><path d="M 182.1 23 L 183.3 23 L 183.3 54.4 A 32.015 32.015 0 0 0 183.511 58.167 A 23.551 23.551 0 0 0 184.2 61.725 A 16.031 16.031 0 0 0 185.476 64.961 A 13.107 13.107 0 0 0 186.975 67.2 Q 188.85 69.45 191.65 70.625 A 14.342 14.342 0 0 0 194.712 71.506 Q 196.167 71.763 197.823 71.795 A 24.593 24.593 0 0 0 198.3 71.8 Q 204.05 71.8 208.875 68.75 A 27.633 27.633 0 0 0 214.914 63.518 A 34.655 34.655 0 0 0 217.4 60.3 L 217.4 23 L 218.6 23 L 218.6 72 L 218.3 72 Q 217.6 72 217.6 71.2 L 217.4 61.8 Q 215.65 64.3 213.55 66.35 Q 211.45 68.4 209 69.825 Q 206.55 71.25 203.85 72.025 Q 201.15 72.8 198.3 72.8 Q 192.214 72.8 188.442 70.128 A 12.054 12.054 0 0 1 186.1 67.95 Q 182.1 63.1 182.1 54.4 L 182.1 23 Z" id="4" vector-effect="non-scaling-stroke"/><path d="M 271.4 72 L 271.1 72 Q 270.4 72 270.4 71.2 L 270.2 61.75 A 27.304 27.304 0 0 1 265.079 67.588 A 24.528 24.528 0 0 1 262.225 69.675 Q 257.55 72.6 252 72.6 A 23.705 23.705 0 0 1 246.032 71.893 A 16.037 16.037 0 0 1 237.425 66.475 A 18.946 18.946 0 0 1 234.266 60.679 Q 232.428 55.45 232.4 47.835 A 64.228 64.228 0 0 1 232.4 47.6 A 36.931 36.931 0 0 1 233.097 40.317 A 32.524 32.524 0 0 1 233.75 37.65 A 24.947 24.947 0 0 1 235.965 32.316 A 21.485 21.485 0 0 1 237.8 29.575 Q 240.5 26.15 244.525 24.175 A 18.965 18.965 0 0 1 249.922 22.501 A 25.221 25.221 0 0 1 253.9 22.2 A 23.013 23.013 0 0 1 258.666 22.672 A 17.773 17.773 0 0 1 263.35 24.35 A 16.891 16.891 0 0 1 268.328 28.417 A 21.812 21.812 0 0 1 270.2 31 L 270.2 0 L 271.4 0 L 271.4 72 Z M 270.2 60.15 L 270.2 32.6 Q 267.657 28.57 264.685 26.393 A 14.369 14.369 0 0 0 263 25.325 A 17.743 17.743 0 0 0 256.852 23.387 A 22.615 22.615 0 0 0 253.9 23.2 A 23.849 23.849 0 0 0 249.51 23.585 A 17.55 17.55 0 0 0 244.95 25.075 Q 241.15 26.95 238.625 30.25 A 21.79 21.79 0 0 0 235.555 35.847 A 26.172 26.172 0 0 0 234.85 38 A 33.779 33.779 0 0 0 233.699 44.758 A 40.131 40.131 0 0 0 233.6 47.6 Q 233.6 59.8 238.275 65.7 Q 242.95 71.6 252 71.6 Q 257.45 71.6 262.125 68.55 A 25.791 25.791 0 0 0 268.128 63.051 A 32.047 32.047 0 0 0 270.2 60.15 Z" id="5" vector-effect="non-scaling-stroke"/><path d="M 290.9 72 L 289.7 72 L 289.7 0 L 290.9 0 L 290.9 33.2 Q 292.6 30.7 294.725 28.675 Q 296.85 26.65 299.3 25.2 Q 301.75 23.75 304.45 22.975 Q 307.15 22.2 310 22.2 Q 318.15 22.2 322.175 27.05 A 16.176 16.176 0 0 1 325.178 32.81 Q 326.2 36.216 326.2 40.6 L 326.2 72 L 325 72 L 325 40.6 A 32.015 32.015 0 0 0 324.789 36.833 A 23.551 23.551 0 0 0 324.1 33.275 A 16.031 16.031 0 0 0 322.824 30.039 A 13.107 13.107 0 0 0 321.325 27.8 Q 319.45 25.55 316.625 24.375 A 14.751 14.751 0 0 0 313.348 23.458 Q 311.879 23.216 310.222 23.201 A 24.306 24.306 0 0 0 310 23.2 Q 304.25 23.2 299.4 26.275 Q 294.55 29.35 290.9 34.75 L 290.9 72 Z" id="6" vector-effect="non-scaling-stroke"/><path d="M 366.1 2.4 L 397.9 55.95 A 18.127 18.127 0 0 1 398.044 56.194 A 15.035 15.035 0 0 1 398.175 56.425 Q 398.3 56.65 398.45 57 A 9.161 9.161 0 0 1 398.557 56.76 Q 398.607 56.652 398.654 56.559 A 4.122 4.122 0 0 1 398.725 56.425 A 15.035 15.035 0 0 1 398.856 56.194 A 18.126 18.126 0 0 1 399 55.95 L 429.8 2.4 Q 430.05 2 430.5 2 L 430.9 2 L 430.9 72 L 429.9 72 L 429.9 5.1 L 429.9 4.6 Q 429.9 4.35 429.95 4.1 L 399.3 57.5 A 2.017 2.017 0 0 1 399.128 57.716 Q 398.915 57.945 398.702 57.989 A 0.499 0.499 0 0 1 398.6 58 L 398.3 58 A 0.562 0.562 0 0 1 398.016 57.917 Q 397.832 57.811 397.648 57.567 A 2.423 2.423 0 0 1 397.6 57.5 L 365.95 4.15 A 2.603 2.603 0 0 1 365.993 4.453 A 2.16 2.16 0 0 1 366 4.625 L 366 5.1 L 366 72 L 365 72 L 365 2 L 365.4 2 A 0.801 0.801 0 0 1 365.772 2.085 Q 365.932 2.167 366.052 2.329 A 1.09 1.09 0 0 1 366.1 2.4 Z" id="8" vector-effect="non-scaling-stroke"/><path d="M 453.4 23 L 454.6 23 L 454.6 72 L 453.4 72 L 453.4 23 Z M 456.244 6.331 A 2.392 2.392 0 0 0 456.8 4.8 A 2.601 2.601 0 0 0 456.564 3.693 A 2.827 2.827 0 0 0 455.925 2.825 Q 455.05 2 454 2 A 2.804 2.804 0 0 0 453.135 2.131 A 2.755 2.755 0 0 0 452.025 2.825 Q 451.2 3.65 451.2 4.8 A 2.439 2.439 0 0 0 451.476 5.939 A 2.993 2.993 0 0 0 452.025 6.675 Q 452.85 7.5 454 7.5 A 2.543 2.543 0 0 0 455.185 7.209 A 3.283 3.283 0 0 0 455.925 6.675 A 3.368 3.368 0 0 0 456.244 6.331 Z" id="9" vector-effect="non-scaling-stroke"/><path d="M 500.1 27 L 499.9 27.3 A 0.819 0.819 0 0 1 499.765 27.458 A 0.533 0.533 0 0 1 499.4 27.6 A 0.716 0.716 0 0 1 499.161 27.552 Q 498.813 27.427 498.282 26.974 A 7.731 7.731 0 0 1 498.225 26.925 Q 497.45 26.25 495.975 25.425 A 14.573 14.573 0 0 0 494.649 24.775 Q 493.984 24.488 493.214 24.218 A 28.712 28.712 0 0 0 492.25 23.9 A 13.951 13.951 0 0 0 490.249 23.447 Q 488.659 23.2 486.7 23.2 A 17.606 17.606 0 0 0 483.204 23.535 A 14.713 14.713 0 0 0 481.025 24.15 A 15.661 15.661 0 0 0 478.223 25.498 A 13.084 13.084 0 0 0 476.6 26.675 A 11.612 11.612 0 0 0 474.03 29.733 A 11.015 11.015 0 0 0 473.725 30.3 Q 472.7 32.35 472.7 34.6 A 9.287 9.287 0 0 0 472.906 36.609 A 6.638 6.638 0 0 0 473.95 39.025 A 10.486 10.486 0 0 0 476.596 41.619 A 12.382 12.382 0 0 0 477.225 42.025 A 20.543 20.543 0 0 0 479.981 43.41 A 25.625 25.625 0 0 0 481.85 44.1 Q 484.45 44.95 487.15 45.775 Q 489.85 46.6 492.45 47.525 A 21.034 21.034 0 0 1 495.475 48.867 A 17.772 17.772 0 0 1 497.075 49.85 Q 499.1 51.25 500.35 53.275 Q 501.548 55.215 501.598 58.051 A 14.11 14.11 0 0 1 501.6 58.3 Q 501.6 61.3 500.525 63.95 Q 499.45 66.6 497.4 68.55 Q 495.35 70.5 492.375 71.65 A 16.795 16.795 0 0 1 488.551 72.61 A 22.086 22.086 0 0 1 485.6 72.8 Q 482.95 72.8 480.875 72.375 A 21.207 21.207 0 0 1 478.047 71.596 A 18.466 18.466 0 0 1 477.025 71.2 Q 475.25 70.45 473.725 69.35 A 35.6 35.6 0 0 1 471.087 67.244 A 39.646 39.646 0 0 1 470.7 66.9 L 471 66.6 A 4.156 4.156 0 0 1 471.089 66.514 Q 471.181 66.427 471.25 66.375 Q 471.334 66.312 471.526 66.302 A 1.445 1.445 0 0 1 471.6 66.3 A 0.628 0.628 0 0 1 471.83 66.353 Q 472.224 66.512 472.9 67.15 Q 473.505 67.721 474.437 68.382 A 27.494 27.494 0 0 0 475.425 69.05 A 14.551 14.551 0 0 0 476.978 69.915 Q 477.794 70.311 478.753 70.672 A 27.49 27.49 0 0 0 479.525 70.95 A 14.317 14.317 0 0 0 481.86 71.524 Q 483.02 71.714 484.353 71.773 A 28.034 28.034 0 0 0 485.6 71.8 A 21.098 21.098 0 0 0 488.794 71.569 A 15.673 15.673 0 0 0 491.975 70.75 A 14.738 14.738 0 0 0 494.891 69.277 A 12.368 12.368 0 0 0 496.65 67.875 Q 498.55 66.05 499.525 63.625 A 13.723 13.723 0 0 0 500.491 58.922 A 15.789 15.789 0 0 0 500.5 58.4 A 10.71 10.71 0 0 0 500.309 56.322 Q 500.058 55.053 499.477 54.041 A 6.485 6.485 0 0 0 499.25 53.675 A 10.941 10.941 0 0 0 496.287 50.707 A 12.624 12.624 0 0 0 495.975 50.5 A 19.446 19.446 0 0 0 493.07 48.977 A 23.806 23.806 0 0 0 491.35 48.325 Q 488.75 47.45 486.05 46.65 Q 483.35 45.85 480.75 44.95 A 22.553 22.553 0 0 1 477.795 43.695 A 18.63 18.63 0 0 1 476.125 42.725 Q 474.1 41.4 472.85 39.45 A 7.626 7.626 0 0 1 471.831 36.917 Q 471.614 35.913 471.601 34.755 A 13.279 13.279 0 0 1 471.6 34.6 Q 471.6 32.15 472.7 29.925 A 12.437 12.437 0 0 1 475.554 26.193 A 14.258 14.258 0 0 1 475.8 25.975 A 14.696 14.696 0 0 1 479.155 23.819 A 17.765 17.765 0 0 1 480.575 23.225 A 16.551 16.551 0 0 1 484.662 22.3 A 20.265 20.265 0 0 1 486.7 22.2 A 25.977 25.977 0 0 1 490.313 22.439 Q 492.302 22.719 494 23.325 Q 497.15 24.45 500.1 27 Z" id="10" vector-effect="non-scaling-stroke"/><path d="M 517.8 72 L 516.6 72 L 516.6 0 L 517.8 0 L 517.8 33.2 Q 519.5 30.7 521.625 28.675 Q 523.75 26.65 526.2 25.2 Q 528.65 23.75 531.35 22.975 Q 534.05 22.2 536.9 22.2 Q 545.05 22.2 549.075 27.05 A 16.176 16.176 0 0 1 552.078 32.81 Q 553.1 36.216 553.1 40.6 L 553.1 72 L 551.9 72 L 551.9 40.6 A 32.015 32.015 0 0 0 551.689 36.833 A 23.551 23.551 0 0 0 551 33.275 A 16.031 16.031 0 0 0 549.724 30.039 A 13.107 13.107 0 0 0 548.225 27.8 Q 546.35 25.55 543.525 24.375 A 14.751 14.751 0 0 0 540.248 23.458 Q 538.779 23.216 537.122 23.201 A 24.306 24.306 0 0 0 536.9 23.2 Q 531.15 23.2 526.3 26.275 Q 521.45 29.35 517.8 34.75 L 517.8 72 Z" id="11" vector-effect="non-scaling-stroke"/><path d="M 570.6 72 L 569.4 72 L 569.4 23 L 569.7 23 Q 570.4 23 570.4 23.8 L 570.55 37.4 A 35.385 35.385 0 0 1 571.848 33.655 A 27.628 27.628 0 0 1 573.15 30.925 A 20.114 20.114 0 0 1 575.273 27.771 A 16.937 16.937 0 0 1 576.8 26.15 Q 578.9 24.2 581.575 23.2 A 15.622 15.622 0 0 1 585.158 22.344 A 20.087 20.087 0 0 1 587.6 22.2 A 20.252 20.252 0 0 1 590.395 22.386 A 16.717 16.717 0 0 1 592.05 22.7 Q 594.1 23.2 596 24.1 L 595.8 24.5 A 8.082 8.082 0 0 0 595.706 24.644 A 5.881 5.881 0 0 0 595.625 24.775 Q 595.55 24.9 595.3 24.9 A 0.796 0.796 0 0 1 595.155 24.884 Q 594.918 24.84 594.514 24.667 A 7.632 7.632 0 0 1 594.475 24.65 Q 594.089 24.482 593.544 24.291 A 26.082 26.082 0 0 0 592.975 24.1 Q 592.267 23.87 591.324 23.67 A 26.637 26.637 0 0 0 590.725 23.55 A 13.325 13.325 0 0 0 589.475 23.379 Q 588.828 23.32 588.097 23.305 A 24.507 24.507 0 0 0 587.6 23.3 A 16.237 16.237 0 0 0 582.691 24.01 A 13.137 13.137 0 0 0 577 27.6 A 22.664 22.664 0 0 0 573.782 32.052 Q 572.532 34.272 571.525 37.006 A 46.292 46.292 0 0 0 570.6 39.8 L 570.6 72 Z" id="12" vector-effect="non-scaling-stroke"/><path d="M 636.2 72 L 636 72 Q 635.3 72 635.3 71.2 L 635 63.25 A 56.53 56.53 0 0 1 631.981 66.193 A 48.595 48.595 0 0 1 630.8 67.225 Q 628.7 69 626.35 70.225 Q 624 71.45 621.3 72.125 A 22.132 22.132 0 0 1 618.073 72.671 A 28.667 28.667 0 0 1 615.3 72.8 A 15.134 15.134 0 0 1 611.014 72.167 A 16.855 16.855 0 0 1 610.875 72.125 Q 608.65 71.45 606.85 69.975 A 10.644 10.644 0 0 1 604.449 67.152 A 12.884 12.884 0 0 1 603.925 66.175 Q 602.906 64.068 602.81 61.12 A 19.111 19.111 0 0 1 602.8 60.5 Q 602.8 57.2 604.725 54.575 Q 606.65 51.95 610.625 50.1 Q 614.6 48.25 620.65 47.175 Q 625.716 46.275 632.36 45.988 A 138.905 138.905 0 0 1 635 45.9 L 635 39.6 A 29.896 29.896 0 0 0 634.789 35.963 A 22.233 22.233 0 0 0 634.15 32.7 Q 633.3 29.65 631.65 27.55 Q 630 25.45 627.5 24.325 A 12.502 12.502 0 0 0 624.272 23.389 A 16.764 16.764 0 0 0 621.7 23.2 Q 619.1 23.2 617 23.75 A 23.012 23.012 0 0 0 614.838 24.426 A 17.85 17.85 0 0 0 613.25 25.1 A 18.223 18.223 0 0 0 611.572 26.02 A 14.152 14.152 0 0 0 610.375 26.85 A 51.21 51.21 0 0 0 609.365 27.653 Q 608.909 28.026 608.51 28.372 A 29.645 29.645 0 0 0 608.25 28.6 Q 607.395 29.36 606.856 29.895 A 17.793 17.793 0 0 0 606.8 29.95 Q 606.326 30.424 606.075 30.49 A 0.298 0.298 0 0 1 606 30.5 A 0.36 0.36 0 0 1 605.865 30.471 Q 605.75 30.424 605.609 30.302 A 2.098 2.098 0 0 1 605.5 30.2 L 605.3 30 A 33.02 33.02 0 0 1 608.904 26.695 A 24.797 24.797 0 0 1 612.75 24.2 A 17.563 17.563 0 0 1 618.269 22.447 A 22.992 22.992 0 0 1 621.7 22.2 A 19.686 19.686 0 0 1 624.759 22.426 Q 626.632 22.72 628.175 23.4 Q 630.9 24.6 632.7 26.85 A 13.523 13.523 0 0 1 634.653 30.223 A 17.182 17.182 0 0 1 635.35 32.325 A 24.934 24.934 0 0 1 636.013 35.984 A 33.465 33.465 0 0 1 636.2 39.6 L 636.2 72 Z M 635 62 L 635 46.9 Q 621.682 47.323 614.174 49.837 A 27.655 27.655 0 0 0 611.625 50.825 Q 604 54.25 604 60.5 A 14.962 14.962 0 0 0 604.18 62.883 Q 604.419 64.363 604.975 65.575 A 11.01 11.01 0 0 0 606.343 67.832 A 9.36 9.36 0 0 0 607.525 69.075 Q 609.1 70.45 611.125 71.125 Q 613.15 71.8 615.3 71.8 A 25.684 25.684 0 0 0 618.782 71.574 A 19.883 19.883 0 0 0 621.55 71 A 23.41 23.41 0 0 0 625.803 69.337 A 21.229 21.229 0 0 0 626.7 68.85 Q 629.05 67.5 631.075 65.725 Q 633.1 63.95 635 62 Z" id="13" vector-effect="non-scaling-stroke"/>
      </g>
    </svg>
