<svg width="326.2" height="72.801" viewBox="0 0 326.2 72.801" xmlns="http://www.w3.org/2000/svg"><g fill="none" fill-rule="evenodd" stroke="currentColor" stroke-width="1.3" class="linesSep"><path d="M 30.2 2 L 59.4 72 L 58.5 72 A 0.608 0.608 0 0 1 58.223 71.94 Q 58.082 71.869 57.991 71.715 A 0.966 0.966 0 0 1 57.9 71.5 L 48.15 48.1 L 11.25 48.1 L 1.5 71.5 Q 1.377 71.91 0.985 71.984 A 1.001 1.001 0 0 1 0.8 72 L 0 72 L 29.2 2 L 30.2 2 Z M 28.9 5.7 L 11.65 47.1 L 47.75 47.1 L 30.5 5.7 A 17.282 17.282 0 0 1 30.269 5.169 A 13.258 13.258 0 0 1 30.075 4.675 A 232.797 232.797 0 0 1 29.894 4.181 A 289.325 289.325 0 0 1 29.7 3.65 A 289.458 289.458 0 0 1 29.506 4.181 A 232.871 232.871 0 0 1 29.325 4.675 A 13.258 13.258 0 0 1 29.131 5.169 A 17.282 17.282 0 0 1 28.9 5.7 Z" id="0" vector-effect="non-scaling-stroke"/><path d="M 70.4 72 L 69.2 72 L 69.2 23 L 69.5 23 Q 70.2 23 70.2 23.8 L 70.35 33.25 Q 72.05 30.75 74.175 28.7 Q 76.3 26.65 78.75 25.2 Q 81.2 23.75 83.9 22.975 Q 86.6 22.2 89.5 22.2 Q 97.65 22.2 101.675 27.05 A 16.176 16.176 0 0 1 104.678 32.81 Q 105.7 36.216 105.7 40.6 L 105.7 72 L 104.5 72 L 104.5 40.6 A 32.015 32.015 0 0 0 104.289 36.833 A 23.551 23.551 0 0 0 103.6 33.275 A 16.031 16.031 0 0 0 102.324 30.039 A 13.107 13.107 0 0 0 100.825 27.8 Q 98.95 25.55 96.125 24.375 A 14.751 14.751 0 0 0 92.848 23.458 Q 91.379 23.216 89.722 23.201 A 24.306 24.306 0 0 0 89.5 23.2 Q 83.75 23.2 78.9 26.275 Q 74.05 29.35 70.4 34.75 L 70.4 72 Z" id="1" vector-effect="non-scaling-stroke"/><path d="M 123.7 23 L 124.9 23 L 124.9 72 L 123.7 72 L 123.7 23 Z M 126.544 6.331 A 2.392 2.392 0 0 0 127.1 4.8 A 2.601 2.601 0 0 0 126.864 3.693 A 2.827 2.827 0 0 0 126.225 2.825 Q 125.35 2 124.3 2 A 2.804 2.804 0 0 0 123.435 2.131 A 2.755 2.755 0 0 0 122.325 2.825 Q 121.5 3.65 121.5 4.8 A 2.439 2.439 0 0 0 121.776 5.939 A 2.993 2.993 0 0 0 122.325 6.675 Q 123.15 7.5 124.3 7.5 A 2.543 2.543 0 0 0 125.485 7.209 A 3.283 3.283 0 0 0 126.225 6.675 A 3.368 3.368 0 0 0 126.544 6.331 Z" id="2" vector-effect="non-scaling-stroke"/><path d="M 145.4 72 L 144.2 72 L 144.2 23 L 144.5 23 Q 145.2 23 145.2 23.8 L 145.35 37.4 A 35.385 35.385 0 0 1 146.648 33.655 A 27.628 27.628 0 0 1 147.95 30.925 A 20.114 20.114 0 0 1 150.073 27.771 A 16.937 16.937 0 0 1 151.6 26.15 Q 153.7 24.2 156.375 23.2 A 15.622 15.622 0 0 1 159.958 22.344 A 20.087 20.087 0 0 1 162.4 22.2 A 20.252 20.252 0 0 1 165.195 22.386 A 16.717 16.717 0 0 1 166.85 22.7 Q 168.9 23.2 170.8 24.1 L 170.6 24.5 A 8.082 8.082 0 0 0 170.506 24.644 A 5.881 5.881 0 0 0 170.425 24.775 Q 170.35 24.9 170.1 24.9 A 0.796 0.796 0 0 1 169.955 24.884 Q 169.718 24.84 169.314 24.667 A 7.632 7.632 0 0 1 169.275 24.65 Q 168.889 24.482 168.344 24.291 A 26.082 26.082 0 0 0 167.775 24.1 Q 167.067 23.87 166.124 23.67 A 26.637 26.637 0 0 0 165.525 23.55 A 13.325 13.325 0 0 0 164.275 23.379 Q 163.628 23.32 162.897 23.305 A 24.507 24.507 0 0 0 162.4 23.3 A 16.237 16.237 0 0 0 157.491 24.01 A 13.137 13.137 0 0 0 151.8 27.6 A 22.664 22.664 0 0 0 148.582 32.052 Q 147.332 34.272 146.325 37.006 A 46.292 46.292 0 0 0 145.4 39.8 L 145.4 72 Z" id="3" vector-effect="non-scaling-stroke"/><path d="M 182.1 23 L 183.3 23 L 183.3 54.4 A 32.015 32.015 0 0 0 183.511 58.167 A 23.551 23.551 0 0 0 184.2 61.725 A 16.031 16.031 0 0 0 185.476 64.961 A 13.107 13.107 0 0 0 186.975 67.2 Q 188.85 69.45 191.65 70.625 A 14.342 14.342 0 0 0 194.712 71.506 Q 196.167 71.763 197.823 71.795 A 24.593 24.593 0 0 0 198.3 71.8 Q 204.05 71.8 208.875 68.75 A 27.633 27.633 0 0 0 214.914 63.518 A 34.655 34.655 0 0 0 217.4 60.3 L 217.4 23 L 218.6 23 L 218.6 72 L 218.3 72 Q 217.6 72 217.6 71.2 L 217.4 61.8 Q 215.65 64.3 213.55 66.35 Q 211.45 68.4 209 69.825 Q 206.55 71.25 203.85 72.025 Q 201.15 72.8 198.3 72.8 Q 192.214 72.8 188.442 70.128 A 12.054 12.054 0 0 1 186.1 67.95 Q 182.1 63.1 182.1 54.4 L 182.1 23 Z" id="4" vector-effect="non-scaling-stroke"/><path d="M 271.4 72 L 271.1 72 Q 270.4 72 270.4 71.2 L 270.2 61.75 A 27.304 27.304 0 0 1 265.079 67.588 A 24.528 24.528 0 0 1 262.225 69.675 Q 257.55 72.6 252 72.6 A 23.705 23.705 0 0 1 246.032 71.893 A 16.037 16.037 0 0 1 237.425 66.475 A 18.946 18.946 0 0 1 234.266 60.679 Q 232.428 55.45 232.4 47.835 A 64.228 64.228 0 0 1 232.4 47.6 A 36.931 36.931 0 0 1 233.097 40.317 A 32.524 32.524 0 0 1 233.75 37.65 A 24.947 24.947 0 0 1 235.965 32.316 A 21.485 21.485 0 0 1 237.8 29.575 Q 240.5 26.15 244.525 24.175 A 18.965 18.965 0 0 1 249.922 22.501 A 25.221 25.221 0 0 1 253.9 22.2 A 23.013 23.013 0 0 1 258.666 22.672 A 17.773 17.773 0 0 1 263.35 24.35 A 16.891 16.891 0 0 1 268.328 28.417 A 21.812 21.812 0 0 1 270.2 31 L 270.2 0 L 271.4 0 L 271.4 72 Z M 270.2 60.15 L 270.2 32.6 Q 267.657 28.57 264.685 26.393 A 14.369 14.369 0 0 0 263 25.325 A 17.743 17.743 0 0 0 256.852 23.387 A 22.615 22.615 0 0 0 253.9 23.2 A 23.849 23.849 0 0 0 249.51 23.585 A 17.55 17.55 0 0 0 244.95 25.075 Q 241.15 26.95 238.625 30.25 A 21.79 21.79 0 0 0 235.555 35.847 A 26.172 26.172 0 0 0 234.85 38 A 33.779 33.779 0 0 0 233.699 44.758 A 40.131 40.131 0 0 0 233.6 47.6 Q 233.6 59.8 238.275 65.7 Q 242.95 71.6 252 71.6 Q 257.45 71.6 262.125 68.55 A 25.791 25.791 0 0 0 268.128 63.051 A 32.047 32.047 0 0 0 270.2 60.15 Z" id="5" vector-effect="non-scaling-stroke"/><path d="M 290.9 72 L 289.7 72 L 289.7 0 L 290.9 0 L 290.9 33.2 Q 292.6 30.7 294.725 28.675 Q 296.85 26.65 299.3 25.2 Q 301.75 23.75 304.45 22.975 Q 307.15 22.2 310 22.2 Q 318.15 22.2 322.175 27.05 A 16.176 16.176 0 0 1 325.178 32.81 Q 326.2 36.216 326.2 40.6 L 326.2 72 L 325 72 L 325 40.6 A 32.015 32.015 0 0 0 324.789 36.833 A 23.551 23.551 0 0 0 324.1 33.275 A 16.031 16.031 0 0 0 322.824 30.039 A 13.107 13.107 0 0 0 321.325 27.8 Q 319.45 25.55 316.625 24.375 A 14.751 14.751 0 0 0 313.348 23.458 Q 311.879 23.216 310.222 23.201 A 24.306 24.306 0 0 0 310 23.2 Q 304.25 23.2 299.4 26.275 Q 294.55 29.35 290.9 34.75 L 290.9 72 Z" id="6" vector-effect="non-scaling-stroke"/></g></svg>
