<svg width="271.2" height="72.8" viewBox="0 0 271.2 72.8" xmlns="http://www.w3.org/2000/svg"><g fill="none" fill-rule="evenodd" stroke="currentColor" stroke-width="1.3" class="linesSep"><path d="M 1.1 2.4 L 32.9 55.95 A 18.127 18.127 0 0 1 33.044 56.194 A 15.035 15.035 0 0 1 33.175 56.425 Q 33.3 56.65 33.45 57 A 9.161 9.161 0 0 1 33.557 56.76 Q 33.607 56.652 33.654 56.559 A 4.122 4.122 0 0 1 33.725 56.425 A 15.035 15.035 0 0 1 33.856 56.194 A 18.126 18.126 0 0 1 34 55.95 L 64.8 2.4 Q 65.05 2 65.5 2 L 65.9 2 L 65.9 72 L 64.9 72 L 64.9 5.1 L 64.9 4.6 Q 64.9 4.35 64.95 4.1 L 34.3 57.5 A 2.017 2.017 0 0 1 34.128 57.716 Q 33.915 57.945 33.702 57.989 A 0.499 0.499 0 0 1 33.6 58 L 33.3 58 A 0.562 0.562 0 0 1 33.016 57.917 Q 32.832 57.811 32.648 57.567 A 2.423 2.423 0 0 1 32.6 57.5 L 0.95 4.15 A 2.603 2.603 0 0 1 0.993 4.453 A 2.16 2.16 0 0 1 1 4.625 L 1 5.1 L 1 72 L 0 72 L 0 2 L 0.4 2 A 0.801 0.801 0 0 1 0.772 2.085 Q 0.932 2.167 1.052 2.329 A 1.09 1.09 0 0 1 1.1 2.4 Z" id="0" vector-effect="non-scaling-stroke"/><path d="M 88.4 23 L 89.6 23 L 89.6 72 L 88.4 72 L 88.4 23 Z M 91.244 6.331 A 2.392 2.392 0 0 0 91.8 4.8 A 2.601 2.601 0 0 0 91.564 3.693 A 2.827 2.827 0 0 0 90.925 2.825 Q 90.05 2 89 2 A 2.804 2.804 0 0 0 88.135 2.131 A 2.755 2.755 0 0 0 87.025 2.825 Q 86.2 3.65 86.2 4.8 A 2.439 2.439 0 0 0 86.476 5.939 A 2.993 2.993 0 0 0 87.025 6.675 Q 87.85 7.5 89 7.5 A 2.543 2.543 0 0 0 90.185 7.209 A 3.283 3.283 0 0 0 90.925 6.675 A 3.368 3.368 0 0 0 91.244 6.331 Z" id="1" vector-effect="non-scaling-stroke"/><path d="M 135.1 27 L 134.9 27.3 A 0.819 0.819 0 0 1 134.765 27.458 A 0.533 0.533 0 0 1 134.4 27.6 A 0.716 0.716 0 0 1 134.161 27.552 Q 133.813 27.427 133.282 26.974 A 7.731 7.731 0 0 1 133.225 26.925 Q 132.45 26.25 130.975 25.425 A 14.573 14.573 0 0 0 129.649 24.775 Q 128.984 24.488 128.214 24.218 A 28.712 28.712 0 0 0 127.25 23.9 A 13.951 13.951 0 0 0 125.249 23.447 Q 123.659 23.2 121.7 23.2 A 17.606 17.606 0 0 0 118.204 23.535 A 14.713 14.713 0 0 0 116.025 24.15 A 15.661 15.661 0 0 0 113.223 25.498 A 13.084 13.084 0 0 0 111.6 26.675 A 11.612 11.612 0 0 0 109.03 29.733 A 11.015 11.015 0 0 0 108.725 30.3 Q 107.7 32.35 107.7 34.6 A 9.287 9.287 0 0 0 107.906 36.609 A 6.638 6.638 0 0 0 108.95 39.025 A 10.486 10.486 0 0 0 111.596 41.619 A 12.382 12.382 0 0 0 112.225 42.025 A 20.543 20.543 0 0 0 114.981 43.41 A 25.625 25.625 0 0 0 116.85 44.1 Q 119.45 44.95 122.15 45.775 Q 124.85 46.6 127.45 47.525 A 21.034 21.034 0 0 1 130.475 48.867 A 17.772 17.772 0 0 1 132.075 49.85 Q 134.1 51.25 135.35 53.275 Q 136.548 55.215 136.598 58.051 A 14.11 14.11 0 0 1 136.6 58.3 Q 136.6 61.3 135.525 63.95 Q 134.45 66.6 132.4 68.55 Q 130.35 70.5 127.375 71.65 A 16.795 16.795 0 0 1 123.551 72.61 A 22.086 22.086 0 0 1 120.6 72.8 Q 117.95 72.8 115.875 72.375 A 21.207 21.207 0 0 1 113.047 71.596 A 18.466 18.466 0 0 1 112.025 71.2 Q 110.25 70.45 108.725 69.35 A 35.6 35.6 0 0 1 106.087 67.244 A 39.646 39.646 0 0 1 105.7 66.9 L 106 66.6 A 4.156 4.156 0 0 1 106.089 66.514 Q 106.181 66.427 106.25 66.375 Q 106.334 66.312 106.526 66.302 A 1.445 1.445 0 0 1 106.6 66.3 A 0.628 0.628 0 0 1 106.83 66.353 Q 107.224 66.512 107.9 67.15 Q 108.505 67.721 109.437 68.382 A 27.494 27.494 0 0 0 110.425 69.05 A 14.551 14.551 0 0 0 111.978 69.915 Q 112.794 70.311 113.753 70.672 A 27.49 27.49 0 0 0 114.525 70.95 A 14.317 14.317 0 0 0 116.86 71.524 Q 118.02 71.714 119.353 71.773 A 28.034 28.034 0 0 0 120.6 71.8 A 21.098 21.098 0 0 0 123.794 71.569 A 15.673 15.673 0 0 0 126.975 70.75 A 14.738 14.738 0 0 0 129.891 69.277 A 12.368 12.368 0 0 0 131.65 67.875 Q 133.55 66.05 134.525 63.625 A 13.723 13.723 0 0 0 135.491 58.922 A 15.789 15.789 0 0 0 135.5 58.4 A 10.71 10.71 0 0 0 135.309 56.322 Q 135.058 55.053 134.477 54.041 A 6.485 6.485 0 0 0 134.25 53.675 A 10.941 10.941 0 0 0 131.287 50.707 A 12.624 12.624 0 0 0 130.975 50.5 A 19.446 19.446 0 0 0 128.07 48.977 A 23.806 23.806 0 0 0 126.35 48.325 Q 123.75 47.45 121.05 46.65 Q 118.35 45.85 115.75 44.95 A 22.553 22.553 0 0 1 112.795 43.695 A 18.63 18.63 0 0 1 111.125 42.725 Q 109.1 41.4 107.85 39.45 A 7.626 7.626 0 0 1 106.831 36.917 Q 106.614 35.913 106.601 34.755 A 13.279 13.279 0 0 1 106.6 34.6 Q 106.6 32.15 107.7 29.925 A 12.437 12.437 0 0 1 110.554 26.193 A 14.258 14.258 0 0 1 110.8 25.975 A 14.696 14.696 0 0 1 114.155 23.819 A 17.765 17.765 0 0 1 115.575 23.225 A 16.551 16.551 0 0 1 119.662 22.3 A 20.265 20.265 0 0 1 121.7 22.2 A 25.977 25.977 0 0 1 125.313 22.439 Q 127.302 22.719 129 23.325 Q 132.15 24.45 135.1 27 Z" id="2" vector-effect="non-scaling-stroke"/><path d="M 152.8 72 L 151.6 72 L 151.6 0 L 152.8 0 L 152.8 33.2 Q 154.5 30.7 156.625 28.675 Q 158.75 26.65 161.2 25.2 Q 163.65 23.75 166.35 22.975 Q 169.05 22.2 171.9 22.2 Q 180.05 22.2 184.075 27.05 A 16.176 16.176 0 0 1 187.078 32.81 Q 188.1 36.216 188.1 40.6 L 188.1 72 L 186.9 72 L 186.9 40.6 A 32.015 32.015 0 0 0 186.689 36.833 A 23.551 23.551 0 0 0 186 33.275 A 16.031 16.031 0 0 0 184.724 30.039 A 13.107 13.107 0 0 0 183.225 27.8 Q 181.35 25.55 178.525 24.375 A 14.751 14.751 0 0 0 175.248 23.458 Q 173.779 23.216 172.122 23.201 A 24.306 24.306 0 0 0 171.9 23.2 Q 166.15 23.2 161.3 26.275 Q 156.45 29.35 152.8 34.75 L 152.8 72 Z" id="3" vector-effect="non-scaling-stroke"/><path d="M 205.6 72 L 204.4 72 L 204.4 23 L 204.7 23 Q 205.4 23 205.4 23.8 L 205.55 37.4 A 35.385 35.385 0 0 1 206.848 33.655 A 27.628 27.628 0 0 1 208.15 30.925 A 20.114 20.114 0 0 1 210.273 27.771 A 16.937 16.937 0 0 1 211.8 26.15 Q 213.9 24.2 216.575 23.2 A 15.622 15.622 0 0 1 220.158 22.344 A 20.087 20.087 0 0 1 222.6 22.2 A 20.252 20.252 0 0 1 225.395 22.386 A 16.717 16.717 0 0 1 227.05 22.7 Q 229.1 23.2 231 24.1 L 230.8 24.5 A 8.082 8.082 0 0 0 230.706 24.644 A 5.881 5.881 0 0 0 230.625 24.775 Q 230.55 24.9 230.3 24.9 A 0.796 0.796 0 0 1 230.155 24.884 Q 229.918 24.84 229.514 24.667 A 7.632 7.632 0 0 1 229.475 24.65 Q 229.089 24.482 228.544 24.291 A 26.082 26.082 0 0 0 227.975 24.1 Q 227.267 23.87 226.324 23.67 A 26.637 26.637 0 0 0 225.725 23.55 A 13.325 13.325 0 0 0 224.475 23.379 Q 223.828 23.32 223.097 23.305 A 24.507 24.507 0 0 0 222.6 23.3 A 16.237 16.237 0 0 0 217.691 24.01 A 13.137 13.137 0 0 0 212 27.6 A 22.664 22.664 0 0 0 208.782 32.052 Q 207.532 34.272 206.525 37.006 A 46.292 46.292 0 0 0 205.6 39.8 L 205.6 72 Z" id="4" vector-effect="non-scaling-stroke"/><path d="M 271.2 72 L 271 72 Q 270.3 72 270.3 71.2 L 270 63.25 A 56.53 56.53 0 0 1 266.981 66.193 A 48.595 48.595 0 0 1 265.8 67.225 Q 263.7 69 261.35 70.225 Q 259 71.45 256.3 72.125 A 22.132 22.132 0 0 1 253.073 72.671 A 28.667 28.667 0 0 1 250.3 72.8 A 15.134 15.134 0 0 1 246.014 72.167 A 16.855 16.855 0 0 1 245.875 72.125 Q 243.65 71.45 241.85 69.975 A 10.644 10.644 0 0 1 239.449 67.152 A 12.884 12.884 0 0 1 238.925 66.175 Q 237.906 64.068 237.81 61.12 A 19.111 19.111 0 0 1 237.8 60.5 Q 237.8 57.2 239.725 54.575 Q 241.65 51.95 245.625 50.1 Q 249.6 48.25 255.65 47.175 Q 260.716 46.275 267.36 45.988 A 138.905 138.905 0 0 1 270 45.9 L 270 39.6 A 29.896 29.896 0 0 0 269.789 35.963 A 22.233 22.233 0 0 0 269.15 32.7 Q 268.3 29.65 266.65 27.55 Q 265 25.45 262.5 24.325 A 12.502 12.502 0 0 0 259.272 23.389 A 16.764 16.764 0 0 0 256.7 23.2 Q 254.1 23.2 252 23.75 A 23.012 23.012 0 0 0 249.838 24.426 A 17.85 17.85 0 0 0 248.25 25.1 A 18.223 18.223 0 0 0 246.572 26.02 A 14.152 14.152 0 0 0 245.375 26.85 A 51.21 51.21 0 0 0 244.365 27.653 Q 243.909 28.026 243.51 28.372 A 29.645 29.645 0 0 0 243.25 28.6 Q 242.395 29.36 241.856 29.895 A 17.793 17.793 0 0 0 241.8 29.95 Q 241.326 30.424 241.075 30.49 A 0.298 0.298 0 0 1 241 30.5 A 0.36 0.36 0 0 1 240.865 30.471 Q 240.75 30.424 240.609 30.302 A 2.098 2.098 0 0 1 240.5 30.2 L 240.3 30 A 33.02 33.02 0 0 1 243.904 26.695 A 24.797 24.797 0 0 1 247.75 24.2 A 17.563 17.563 0 0 1 253.269 22.447 A 22.992 22.992 0 0 1 256.7 22.2 A 19.686 19.686 0 0 1 259.759 22.426 Q 261.632 22.72 263.175 23.4 Q 265.9 24.6 267.7 26.85 A 13.523 13.523 0 0 1 269.653 30.223 A 17.182 17.182 0 0 1 270.35 32.325 A 24.934 24.934 0 0 1 271.013 35.984 A 33.465 33.465 0 0 1 271.2 39.6 L 271.2 72 Z M 270 62 L 270 46.9 Q 256.682 47.323 249.174 49.837 A 27.655 27.655 0 0 0 246.625 50.825 Q 239 54.25 239 60.5 A 14.962 14.962 0 0 0 239.18 62.883 Q 239.419 64.363 239.975 65.575 A 11.01 11.01 0 0 0 241.343 67.832 A 9.36 9.36 0 0 0 242.525 69.075 Q 244.1 70.45 246.125 71.125 Q 248.15 71.8 250.3 71.8 A 25.684 25.684 0 0 0 253.782 71.574 A 19.883 19.883 0 0 0 256.55 71 A 23.41 23.41 0 0 0 260.803 69.337 A 21.229 21.229 0 0 0 261.7 68.85 Q 264.05 67.5 266.075 65.725 Q 268.1 63.95 270 62 Z" id="5" vector-effect="non-scaling-stroke"/></g></svg>
